<?xml version="1.0"?>
<svg width="800" height="600" xmlns="http://www.w3.org/2000/svg" xmlns:svg="http://www.w3.org/2000/svg">
 <defs>
  <!-- Dark gradient background -->
  <linearGradient id="darkBg" x1="0%" x2="100%" y1="0%" y2="100%">
   <stop offset="0%" stop-color="#0c1420"/>
   <stop offset="50%" stop-color="#1e2532"/>
   <stop offset="100%" stop-color="#0c1420"/>
  </linearGradient>
  <!-- Leadership compass gradient -->
  <radialGradient cx="50%" cy="50%" id="compassGrad">
   <stop offset="0%" stop-color="#f59e0b" stop-opacity="0.8"/>
   <stop offset="100%" stop-color="#d97706" stop-opacity="0.3"/>
  </radialGradient>
  <!-- Balance gradient -->
  <linearGradient id="balanceGrad" x1="0%" x2="100%" y1="0%" y2="100%">
   <stop offset="0%" stop-color="#06b6d4"/>
   <stop offset="100%" stop-color="#0891b2"/>
  </linearGradient>
  <!-- Culture gradient -->
  <!-- Security gradient -->
  <linearGradient id="securityGrad" x1="0%" x2="100%" y1="0%" y2="100%">
   <stop offset="0%" stop-color="#dc2626"/>
   <stop offset="50%" stop-color="#b91c1c"/>
   <stop offset="100%" stop-color="#991b1b"/>
  </linearGradient>
  <!-- Glow effects -->
  <filter id="glow">
   <feGaussianBlur result="coloredBlur" stdDeviation="4"/>
   <feMerge>
    <feMergeNode in="coloredBlur"/>
    <feMergeNode in="SourceGraphic"/>
   </feMerge>
  </filter>
  <filter id="strongGlow">
   <feGaussianBlur result="coloredBlur" stdDeviation="6"/>
   <feMerge>
    <feMergeNode in="coloredBlur"/>
    <feMergeNode in="SourceGraphic"/>
   </feMerge>
  </filter>
  <!-- Drop shadow -->
  <filter id="shadow"/>
  <!-- Text glow -->
  <filter id="textGlow">
   <feGaussianBlur result="coloredBlur" stdDeviation="3"/>
   <feMerge>
    <feMergeNode in="coloredBlur"/>
    <feMergeNode in="SourceGraphic"/>
   </feMerge>
  </filter>
 </defs>
 <!-- Background -->
 <!-- Animated hexagonal background pattern -->
 <defs>
  <pattern height="52" id="hexPattern" patternUnits="userSpaceOnUse" width="60" x="0" y="0">
   <polygon fill="none" id="svg_1" opacity="0.3" points="30,0 50,15 50,37 30,52 10,37 10,15" stroke="#1f2937" stroke-width="0.5"/>
  </pattern>
 </defs>
 <!-- Floating leadership particles -->
 <!-- Central Leadership Hub -->
 <!-- Skill 1: Leading through ambiguity (Top-Left) -->
 <!-- Connection line from center to top-left -->
 <!-- Skill 2: Balancing technical excellence with business impact (Top-Right) -->
 <!-- Connection line from center to top-right -->
 <!-- Skill 3: Cultivating diverse, resilient engineering cultures (Bottom-Left) -->
 <!-- Connection line from center to bottom-left -->
 <!-- Skill 4: Influencing architectural decisions in security (Bottom-Right) -->
 <!-- Connection line from center to bottom-right -->
 <!-- Subtle outer glow effect -->
 <g class="layer">
  <title>Layer 1</title>
  <rect fill="url(#darkBg)" height="600" id="svg_2" width="800"/>
  <rect fill="url(#hexPattern)" height="600" id="svg_3" transform="matrix(1 0 0 1 0 0)" width="800"/>
  <g id="svg_4" opacity="0.4">
   <circle cx="120" cy="80" fill="#f59e0b" id="svg_5" r="2"/>
   <circle cx="680" cy="120" fill="#06b6d4" id="svg_6" r="1.5"/>
   <circle cx="720" cy="420" fill="#10b981" id="svg_7" r="2"/>
   <circle cx="100" cy="480" fill="#dc2626" id="svg_8" r="1.8"/>
  </g>
  <g id="svg_9" transform="translate(400, 300)">
   <circle cx="0" cy="0" fill="none" id="svg_10" opacity="0.3" r="40" stroke="#64748b" stroke-width="2"/>
   <circle cx="0" cy="0" fill="#1e293b" filter="url(#glow)" id="svg_11" r="25" stroke="#f59e0b" stroke-width="2"/>
   <text fill="#f59e0b" filter="url(#textGlow)" font-family="&#x27;SF Pro Display&#x27;, -apple-system, sans-serif" font-size="16" font-weight="bold" id="svg_12" text-anchor="middle" x="0" y="6">LEAD</text>
  </g>
  <g id="svg_13" transform="matrix(1 0 0 1 0 0) matrix(1 0 0 1 20 100)">
   <rect fill="#1e293b" filter="url(#shadow)" height="120" id="svg_14" opacity="0.9" rx="15" stroke="#f59e0b" stroke-width="2" width="280" x="0" y="0"/>
   <!-- Compass/Navigation icon -->
   <g id="svg_15" transform="translate(20, 25)">
    <circle cx="35" cy="35" fill="none" id="svg_16" opacity="0.3" r="30" stroke="url(#compassGrad)" stroke-width="2"/>
    <!-- Compass needle -->
    <g id="svg_17">
     <path d="m35,15l5,20l-5,20l-5,-20l5,-20z" fill="url(#compassGrad)" filter="url(#glow)" id="svg_18"/>
     <!-- North marker -->
     <text fill="#f59e0b" font-family="Arial, sans-serif" font-size="8" font-weight="bold" id="svg_19" text-anchor="middle" x="35" y="12">N</text>
    </g>
    <!-- Fog/ambiguity clouds -->
    <g id="svg_20" opacity="0.4">
     <ellipse cx="20" cy="25" fill="#64748b" id="svg_21" rx="8" ry="5"/>
     <ellipse cx="50" cy="45" fill="#64748b" id="svg_22" rx="6" ry="4"/>
    </g>
   </g>
   <text fill="#f1f5f9" filter="url(#textGlow)" font-family="&#x27;SF Pro Display&#x27;, -apple-system, sans-serif" font-size="20" font-weight="bold" id="svg_23" x="90" y="45">Leading teams through ambiguity</text>
   <text fill="#94a3b8" font-family="&#x27;SF Pro Display&#x27;, -apple-system, sans-serif" font-size="13" id="svg_24" x="90" y="70">Navigate uncertainty • Provide clear direction</text>
   <text fill="#94a3b8" font-family="&#x27;SF Pro Display&#x27;, -apple-system, sans-serif" font-size="13" id="svg_25" x="90" y="90">Foster psychological safety in unknown terrain</text>
  </g>
  <line id="svg_26" opacity="0.5" stroke="#f59e0b" stroke-dasharray="5,5" stroke-width="2" x1="370" x2="220" y1="270" y2="220"/>
  <g id="svg_27" transform="matrix(1 0 0 1 0 0) translate(-52 -5) matrix(1 0 0 1 440 100)">
   <rect fill="#1e293b" filter="url(#shadow)" height="120" id="svg_28" opacity="0.9" rx="15" stroke="#06b6d4" stroke-width="2" width="280" x="0" y="0"/>
   <!-- Balance scale icon -->
   <g id="svg_29" transform="translate(20, 25)">
    <!-- Scale base -->
    <rect fill="#64748b" height="15" id="svg_30" width="6" x="32" y="55"/>
    <!-- Scale beam -->
    <rect fill="url(#balanceGrad)" filter="url(#glow)" height="3" id="svg_31" width="40" x="15" y="32"/>
    <!-- Left pan (Technical) -->
    <g id="svg_32" transform="translate(10, 30)">
     <path d="m10,5l10,0l-2,7l-6,0l-2,-7z" fill="#06b6d4" id="svg_33" opacity="0.8"/>
     <!-- Technical symbols -->
     <text fill="#f1f5f9" font-family="monospace" font-size="6" id="svg_34" text-anchor="middle" x="15" y="9">&lt;/&gt;</text>
    </g>
    <!-- Right pan (Business) -->
    <g id="svg_35" transform="translate(40, 30)">
     <path d="m10,5l10,0l-2,7l-6,0l-2,-7z" fill="#0891b2" id="svg_36" opacity="0.8"/>
     <!-- Business symbol -->
     <text fill="#f1f5f9" font-family="Arial" font-size="6" id="svg_37" text-anchor="middle" x="15" y="9">$</text>
    </g>
   </g>
   <text fill="#f1f5f9" filter="url(#textGlow)" font-family="&#x27;SF Pro Display&#x27;, -apple-system, sans-serif" font-size="20" font-weight="bold" id="svg_38" x="90" y="45">Balancing technical excellence</text>
   <text fill="#f1f5f9" filter="url(#textGlow)" font-family="&#x27;SF Pro Display&#x27;, -apple-system, sans-serif" font-size="20" font-weight="bold" id="svg_39" x="90" y="65">with business impact</text>
   <text fill="#94a3b8" font-family="&#x27;SF Pro Display&#x27;, -apple-system, sans-serif" font-size="13" id="svg_40" x="90" y="85">Strategic trade-offs • ROI-driven decisions</text>
  </g>
  <line id="svg_41" opacity="0.5" stroke="#06b6d4" stroke-dasharray="5,5" stroke-width="2" x1="430" x2="580" y1="270" y2="220"/>
  <g id="svg_42" transform="matrix(1 0 0 1 0 0) matrix(1 0 0 1 44 381)">
   <rect fill="#1e293b" filter="url(#shadow)" height="120" id="svg_43" opacity="0.9" rx="15" stroke="#10b981" stroke-width="2" width="280" x="0" y="0"/>
   <!-- Diverse team circles -->
   <g id="svg_44" transform="translate(20, 25)">
    <!-- Team member circles in different colors -->
    <circle cx="20" cy="25" fill="#10b981" id="svg_45" opacity="0.8" r="8"/>
    <circle cx="35" cy="15" fill="#059669" id="svg_46" opacity="0.8" r="8"/>
    <circle cx="50" cy="25" fill="#047857" id="svg_47" opacity="0.8" r="8"/>
    <circle cx="35" cy="40" fill="#065f46" id="svg_48" opacity="0.8" r="8"/>
    <!-- Connection lines between team members -->
    <g id="svg_49" opacity="0.6">
     <line id="svg_50" stroke="#10b981" stroke-width="1.5" x1="20" x2="35" y1="25" y2="15"/>
     <line id="svg_51" stroke="#10b981" stroke-width="1.5" x1="35" x2="50" y1="15" y2="25"/>
     <line id="svg_52" stroke="#10b981" stroke-width="1.5" x1="35" x2="20" y1="40" y2="25"/>
     <line id="svg_53" stroke="#10b981" stroke-width="1.5" x1="35" x2="50" y1="40" y2="25"/>
    </g>
    <!-- Resilience shield -->
    <g id="svg_54" transform="translate(55, 5)">
     <path d="m8,2l-6,3l0,7c0,4 6,6 6,6c0,0 6,-2 6,-6l0,-7l-6,-3z" fill="none" filter="url(#glow)" id="svg_55" stroke="#10b981" stroke-width="2"/>
     <path d="m5,9l2,2l4,-4" fill="none" id="svg_56" stroke="#10b981" stroke-width="1.5"/>
    </g>
   </g>
   <text fill="#f1f5f9" filter="url(#textGlow)" font-family="&#x27;SF Pro Display&#x27;, -apple-system, sans-serif" font-size="20" font-weight="bold" id="svg_57" x="90" y="45">Cultivating diverse, resilient</text>
   <text fill="#f1f5f9" filter="url(#textGlow)" font-family="&#x27;SF Pro Display&#x27;, -apple-system, sans-serif" font-size="20" font-weight="bold" id="svg_58" x="90" y="65">engineering cultures</text>
   <text fill="#94a3b8" font-family="&#x27;SF Pro Display&#x27;, -apple-system, sans-serif" font-size="13" id="svg_59" x="90" y="85">Inclusive teams • Growth mindset • Adaptability</text>
  </g>
  <line id="svg_60" opacity="0.5" stroke="#10b981" stroke-dasharray="5,5" stroke-width="2" x1="370" x2="220" y1="330" y2="380"/>
  <g id="svg_61" transform="matrix(1 0 0 1 0 0) translate(-29 -5) translate(396 388)">
   <rect fill="#1e293b" filter="url(#shadow)" height="120" id="svg_62" opacity="0.9" rx="15" stroke="#dc2626" stroke-width="2" width="280" x="0" y="0"/>
   <!-- Security architecture diagram -->
   <g id="svg_63" transform="translate(20, 25)">
    <!-- Central secure core -->
    <circle cx="35" cy="35" fill="none" filter="url(#strongGlow)" id="svg_64" r="12" stroke="url(#securityGrad)" stroke-width="3"/>
    <circle cx="35" cy="35" fill="#dc2626" id="svg_65" opacity="0.6" r="6"/>
    <!-- Security layers -->
    <circle cx="35" cy="35" fill="none" id="svg_66" opacity="0.4" r="20" stroke="#dc2626" stroke-dasharray="3,2" stroke-width="1.5"/>
    <circle cx="35" cy="35" fill="none" id="svg_67" opacity="0.3" r="28" stroke="#b91c1c" stroke-dasharray="2,3"/>
    <!-- Lock icon -->
    <g id="svg_68" transform="translate(30, 30)">
     <rect fill="#dc2626" height="6" id="svg_69" opacity="0.8" rx="1" width="8" x="2" y="6"/>
     <path d="m4,6l0,-2c0,-2 2,-2 4,-2c2,0 2,2 2,2l0,2" fill="none" id="svg_70" stroke="#dc2626" stroke-width="1.5"/>
    </g>
    <!-- Architectural decision nodes -->
    <g id="svg_71" opacity="0.7">
     <rect fill="#ef4444" height="6" id="svg_72" rx="1" width="6" x="5" y="10"/>
     <rect fill="#ef4444" height="6" id="svg_73" rx="1" width="6" x="59" y="10"/>
     <rect fill="#ef4444" height="6" id="svg_74" rx="1" width="6" x="5" y="54"/>
     <rect fill="#ef4444" height="6" id="svg_75" rx="1" width="6" x="59" y="54"/>
     <!-- Connection lines to center -->
     <line id="svg_76" opacity="0.5" stroke="#dc2626" x1="11" x2="25" y1="13" y2="25"/>
     <line id="svg_77" opacity="0.5" stroke="#dc2626" x1="59" x2="45" y1="13" y2="25"/>
    </g>
   </g>
   <text fill="#f1f5f9" filter="url(#textGlow)" font-family="&#x27;SF Pro Display&#x27;, -apple-system, sans-serif" font-size="20" font-weight="bold" id="svg_78" x="90" y="45">Influencing long-term architectural</text>
   <text fill="#f1f5f9" filter="url(#textGlow)" font-family="&#x27;SF Pro Display&#x27;, -apple-system, sans-serif" font-size="20" font-weight="bold" id="svg_79" x="90" y="65">decisions in security</text>
   <text fill="#94a3b8" font-family="&#x27;SF Pro Display&#x27;, -apple-system, sans-serif" font-size="13" id="svg_80" x="90" y="85">Security-first design • Risk assessment • Compliance</text>
  </g>
  <line id="svg_81" opacity="0.5" stroke="#dc2626" stroke-dasharray="5,5" stroke-width="2" x1="430" x2="580" y1="330" y2="380"/>
  <rect fill="none" height="590" id="svg_82" opacity="0.3" rx="25" stroke="#374151" width="790" x="3" y="0"/>
 </g>
</svg>